# xmcd CD database file
# Copyright (C) 1996 Ti Kan
#
# Track frame offsets:
# 	182
# 	19837
# 	38210
# 	55612
# 	67510
# 	83775
# 	99140
# 	116140
# 	129437
# 	145445
# 	163362
# 	176727
#
# Disc length: 2490 seconds
#
# Revision: 1
# Processed by: cddbd v1.4b41PL1 Copyright (c) Steve Scherf et al.
# Submitted via: DiscPlay 3.4.1
#
DISCID=9b09b80c
DTITLE=Brush Arbor - The Way the River Runs
DYEAR=1900
DGENRE=
TTITLE0=The Way the River Runs
TTITLE1=Come Unto Me
TTITLE2=My Song
TTITLE3=Don't Look Back
TTITLE4=Keeper of My Heart
TTITLE5=Jesus the Son
TTITLE6=Two Places at one Time
TTITLE7=The Time of my Life
TTITLE8=In His Blood
TTITLE9=You are My Only Need
TTITLE10=Worthy is the Lamb
TTITLE11=Dancin' with the Angels
EXTD=
EXTT0=
EXTT1=
EXTT2=
EXTT3=
EXTT4=
EXTT5=
EXTT6=
EXTT7=
EXTT8=
EXTT9=
EXTT10=
EXTT11=
PLAYORDER=
